<svg width="104" height="93" fill="none" xmlns="http://www.w3.org/2000/svg"><path fill-rule="evenodd" clip-rule="evenodd" d="M29.802 85.25l13.521 3.598v-4.705l1.104-1.107h7.726v9.41h-8.278l-10.21-4.428-3.863-2.768z" fill="#CDBDB2"/><path fill-rule="evenodd" clip-rule="evenodd" d="M73.953 85.25l-13.245 3.598v-4.705l-1.104-1.107h-7.727v9.41h8.279l10.21-4.428 3.587-2.768z" fill="#CDBDB2"/><path fill-rule="evenodd" clip-rule="evenodd" d="M44.427 75.009l-1.104 9.134 1.38-1.107h14.349l1.656 1.107-1.104-9.134-2.208-1.384-11.038.277-1.931 1.107z" fill="#393939"/><path fill-rule="evenodd" clip-rule="evenodd" d="M36.976 13.286l6.623 15.5 3.035 45.116h10.762l3.312-45.116 6.07-15.5H36.976z" fill="#F89C35"/><path fill-rule="evenodd" clip-rule="evenodd" d="M8.002 47.33L.276 69.75l19.316-1.107h12.417v-9.688l-.552-19.928-2.759 2.214-20.696 6.09z" fill="#F89D35"/><path fill-rule="evenodd" clip-rule="evenodd" d="M22.627 49.821l22.628.554L42.77 62l-10.76-2.768-9.382-9.41z" fill="#D87C30"/><path fill-rule="evenodd" clip-rule="evenodd" d="M22.627 50.098l9.382 8.857v8.858l-9.382-17.715z" fill="#EA8D3A"/><path fill-rule="evenodd" clip-rule="evenodd" d="M32.01 59.232L43.046 62l3.587 11.902-2.483 1.384-12.142-7.197v-8.857z" fill="#F89D35"/><path fill-rule="evenodd" clip-rule="evenodd" d="M32.01 68.09l-2.208 17.16 14.625-10.241-12.418-6.92z" fill="#EB8F35"/><path fill-rule="evenodd" clip-rule="evenodd" d="M45.255 50.375l1.38 23.527-4.14-12.04 2.76-11.487z" fill="#EA8E3A"/><path fill-rule="evenodd" clip-rule="evenodd" d="M19.316 68.366l12.693-.277-2.207 17.161-10.486-16.884z" fill="#D87C30"/><path fill-rule="evenodd" clip-rule="evenodd" d="M6.347 92.723l23.455-7.473-10.486-16.884L.276 69.75l6.07 22.973z" fill="#EB8F35"/><path fill-rule="evenodd" clip-rule="evenodd" d="M43.6 28.786L31.732 38.75l-9.106 11.071 22.628.83-1.656-21.865z" fill="#E8821E"/><path fill-rule="evenodd" clip-rule="evenodd" d="M29.802 85.25l14.625-10.241-1.104 8.857v4.982l-9.934-1.937-3.587-1.661zm44.151 0l-14.35-10.241 1.105 8.857v4.982l9.933-1.937 3.312-1.661z" fill="#DFCEC3"/><path fill-rule="evenodd" clip-rule="evenodd" d="M39.184 55.357l3.035 6.366-10.762-2.768 7.727-3.598z" fill="#393939"/><path fill-rule="evenodd" clip-rule="evenodd" d="M6.07.277L43.6 28.786l-6.348-15.5L6.071.276z" fill="#E88F35"/><path fill-rule="evenodd" clip-rule="evenodd" d="M6.07.277L1.105 15.5l2.76 16.607-1.932 1.107 2.759 2.491-2.208 1.938L5.52 40.41l-1.932 1.66 4.415 5.536 20.696-6.366C38.817 33.121 43.784 28.97 43.6 28.785 43.416 28.6 30.907 19.097 6.072.275z" fill="#8E5A30"/><path fill-rule="evenodd" clip-rule="evenodd" d="M95.752 47.33l7.727 22.42-19.316-1.107H71.745v-9.688l.552-19.928 2.76 2.214 20.695 6.09z" fill="#F89D35"/><path fill-rule="evenodd" clip-rule="evenodd" d="M81.127 49.821l-22.627.554L60.983 62l10.762-2.768 9.382-9.41z" fill="#D87C30"/><path fill-rule="evenodd" clip-rule="evenodd" d="M81.127 50.098l-9.382 8.857v8.858l9.382-17.715z" fill="#EA8D3A"/><path fill-rule="evenodd" clip-rule="evenodd" d="M71.745 59.232L60.707 62 57.12 73.902l2.484 1.384 12.141-7.197v-8.857z" fill="#F89D35"/><path fill-rule="evenodd" clip-rule="evenodd" d="M71.745 68.09l2.208 17.16-14.35-9.964 12.142-7.197z" fill="#EB8F35"/><path fill-rule="evenodd" clip-rule="evenodd" d="M58.5 50.375l-1.38 23.527 4.14-12.04-2.76-11.487z" fill="#EA8E3A"/><path fill-rule="evenodd" clip-rule="evenodd" d="M84.439 68.366l-12.694-.277 2.208 17.161 10.486-16.884z" fill="#D87C30"/><path fill-rule="evenodd" clip-rule="evenodd" d="M97.408 92.723L73.953 85.25l10.486-16.884 19.04 1.384-6.071 22.973z" fill="#EB8F35"/><path fill-rule="evenodd" clip-rule="evenodd" d="M60.156 28.786L72.02 38.75l9.106 11.071-22.627.83 1.656-21.865z" fill="#E8821E"/><path fill-rule="evenodd" clip-rule="evenodd" d="M64.57 55.357l-3.035 6.366 10.762-2.768-7.726-3.598z" fill="#393939"/><path fill-rule="evenodd" clip-rule="evenodd" d="M97.684.277L60.156 28.786l6.346-15.5L97.684.276z" fill="#E88F35"/><path fill-rule="evenodd" clip-rule="evenodd" d="M97.684.277l4.967 15.223-2.76 16.607 1.932 1.107-2.76 2.491 2.208 1.938-3.035 2.768 1.931 1.66-4.415 5.536-20.695-6.366c-10.118-8.119-15.085-12.27-14.901-12.455.184-.185 12.693-9.688 37.528-28.51z" fill="#8E5A30"/></svg>